<svg xmlns="http://www.w3.org/2000/svg" viewBox="0 0 231.55 264.28"><defs><style>.cls-1{fill:#494949;}.cls-2{fill:none;stroke:#494849;stroke-linecap:round;stroke-linejoin:round;stroke-width:4px;}.cls-3{fill:#333;}.cls-4{font-size:74.91px;fill:#fff;font-family:OstrichSans-Medium, Ostrich Sans;font-weight:500;letter-spacing:-0.01em;}.cls-5{stroke:#fff;stroke-miterlimit:10;stroke-width:0.5px;}.cls-6{font-size:24.2px;font-family:Bitter-Regular, Bitter;font-weight:400;letter-spacing:0.01em;}.cls-7{letter-spacing:-0.01em;}.cls-8{letter-spacing:-0.02em;}.cls-9{letter-spacing:0.01em;}</style></defs><title>Asset 1</title><g id="Layer_2" data-name="Layer 2"><g id="Layer_1-2" data-name="Layer 1"><rect class="cls-1" x="38.57" y="112.16" width="154.42" height="152.12" rx="10"/><path class="cls-2" d="M115.44,54.4c-.15-3.53-.39-7.88-.29-11.38s.09-7.29,2.66-9.69c3.82-3.57,11.35-4.47,14.7-14a13.36,13.36,0,0,0-1.3-12A13,13,0,0,0,114,3.91c-6.77,3.82-6.35,10.73-6.28,13"/><path class="cls-3" d="M224.73,114c-9.08-7.2-38.75-15.7-58.2-26.79S138.44,60,134.41,55.69s-9.65-7.78-15-8.06l-3.28-.17c.08,0,.07,0-.37,0s-.46,0-.38,0l-3.27.17c-5.33.28-10.95,3.74-15,8.06S84.47,76.15,65,87.24,15.9,106.83,6.83,114,.34,129,.34,129h33v-4.89s-4.9.14-12.24,0-8.61-1.5-6.79-2.89C20,116.89,85.91,83.35,97.58,78.16c9-4,15.31-4.49,17.67-4.49v0l.53,0,.52,0v0c2.36,0,8.62.47,17.68,4.49,11.67,5.19,77.58,38.73,83.27,43.07,1.82,1.39.56,2.74-6.78,2.89s-12.25,0-12.25,0V129h33S233.8,121.24,224.73,114Z"/><text class="cls-4" transform="translate(65.25 199.05)"><tspan class="cls-5">Afro</tspan><tspan class="cls-6"><tspan x="-11.82" y="25.35">C</tspan><tspan class="cls-7" x="4.51" y="25.35">L</tspan><tspan class="cls-8" x="17.1" y="25.35">O</tspan><tspan class="cls-9" x="34.76" y="25.35">THING</tspan></tspan></text></g></g></svg>