<svg xmlns="http://www.w3.org/2000/svg" viewBox="0 0 231.31 264"><defs><style>.cls-1{fill:#494949;}.cls-2{fill:none;stroke:#494849;stroke-linecap:round;stroke-linejoin:round;stroke-width:4px;}.cls-3{fill:#333;}.cls-4{fill:#fff;}</style></defs><title>Asset 2</title><g id="Layer_2" data-name="Layer 2"><g id="Layer_1-2" data-name="Layer 1"><rect class="cls-1" x="38.32" y="111.88" width="154.42" height="152.12" rx="10"/><path class="cls-2" d="M115.19,54.12C112.47,22,121.46,39.74,132.27,19c6.57-20.86-26.54-23.6-24.78-2.45"/><path class="cls-3" d="M224.48,113.75c-9.07-7.2-38.74-15.7-58.19-26.79-30.76-17-24.8-37.79-50.38-39.77.07,0,.07,0-.38,0s-.45,0-.37,0C89.58,49.17,95.53,70,64.78,87,41.84,102.43-2.36,105.41.1,128.74h33v-4.9c2-.32-24.25,1.5-19-2.89C28,113.73,95.41,74,115,73.39v0a9.19,9.19,0,0,1,1,0v0C135.48,74,203.27,113.81,217,121c5.19,4.36-21,2.61-19,2.89v4.9h33S233.56,121,224.48,113.75Z"/><text/><path class="cls-4" d="M136.47,178.53c3.22-3.16,7-5,11.41-3.44-3.43,4.83-8.51,8.82-12.34,13.61-1.73,1.91.1,4.8.27,7,1,2.6-2.06,2.83-.88,5.47.46-.83.49-1.36.72-1.77,1.37,0,.91,2.36.07,3.28-.17.05-.28.25-.51.67,3.08,8.15,3.25,17.51,6.77,25.51a66.51,66.51,0,0,1,5.47,16.67l-1.86-1c-.16.72-.54.89-.23,1.63-1.25.53-3.05.35-2.49,2.28-6.75,1.55-11-6.93-14.14-11.59-.19-.64-.74-1.35.09-2.11.16-.05-.11-1-.25-1.49-5.44-8-8.48-17-12.28-25.85-5.94,8.43-19.39,10.43-21.89,20.51-2.26,5.83-2.89,13.53-7,17.8-3.62,1.38,2,3.25-1.73,3.1-7.86,3.64-5.78-2.51-9.84-5.7,2.59-7.49,6.69-14.23,9.38-20.92-2.29-1.69-7.09-1.37-7.33-4.85,2.87-1.89,7.15,2.14,9.89-.23,8.05-16.12,11.71-33.87,17.19-51,2.37-6.59-.67-13-.72-19.6.39-4.09-.64-21.31,4.48-20.92,11.84-2.28,19.48,4,19.78,16.06,2.51,12.93,2.47,26.06,4.7,39l.41.23C134.65,180.1,135.64,179.29,136.47,178.53Zm-23.86,20.9c2.58-2.82-.92-7.28-1-10.67-3.67-17.71-5.16-7-7.86,4.86C97.8,208.71,102.76,210.76,112.61,199.43Z"/></g></g></svg>