<svg id="Layer_1" data-name="Layer 1" xmlns="http://www.w3.org/2000/svg" viewBox="0 0 47 37.43"><defs><style>.cls-1,.cls-2{fill:#3d3d3d;}.cls-2{font-size:12px;font-family:OstrichSansRounded-Medium, Ostrich Sans Rounded;font-weight:500;letter-spacing:0.01em;}.cls-3{stroke:#b7b7b7;stroke-miterlimit:10;stroke-width:0.5px;}.cls-4{font-size:5.01px;font-family:Bitter-Bold, Bitter;font-weight:700;letter-spacing:0.02em;}.cls-5,.cls-6,.cls-7{font-size:6px;}.cls-5{letter-spacing:0.02em;}.cls-6{letter-spacing:0.04em;}.cls-7{letter-spacing:0.03em;}.cls-8{letter-spacing:0.03em;}.cls-9{fill:#fff;}.cls-10{fill:#808282;}.cls-10,.cls-11{fill-rule:evenodd;}.cls-11{fill:#101a1a;fill-opacity:0.26;}.cls-12{fill:#5e6363;}.cls-13{fill:#474646;}</style></defs><title>kingstyle2</title><path class="cls-1" d="M22.12,35.71c10.93-.21,25.34-.35,25.85-.77h0s0,0,0,0h0c-.52-.41-14.93-.47-25.85-.56-12.35-.1-21-1.45-21.12.79H1v0H1C1.09,37.41,9.78,36,22.12,35.71Zm-16.79.11c-1.62,0-2.94-.29-2.94-.67s1.31-.7,2.93-.71,2.95.29,2.95.67S7,35.81,5.33,35.82Z" transform="translate(-1 -0.54)"/><text class="cls-2" transform="translate(14.78 23.95) scale(1.04 1)"><tspan class="cls-3">KINGS</tspan><tspan class="cls-4"><tspan x="-1.82" y="6">.</tspan><tspan class="cls-5" x="-0.2" y="6">S</tspan><tspan class="cls-6" x="3.58" y="6">T</tspan><tspan class="cls-7" x="7.45" y="6">YLE</tspan><tspan class="cls-8" x="18.87" y="6">.</tspan></tspan></text><rect class="cls-9" x="19.5" y="31.67" width="8" height="5.76"/><g id="WiP"><g id="Artboard"><g id="Group"><polygon id="Rectangle" class="cls-10" points="15.26 5.19 23.76 9.82 32.27 5.19 29.89 14.46 17.61 14.46 15.26 5.19"/><polygon id="Triangle" class="cls-11" points="23.76 2.97 29.56 14.46 17.97 14.46 23.76 2.97"/><ellipse id="Oval" class="cls-12" cx="14.87" cy="3.34" rx="0.77" ry="0.74"/><ellipse id="Oval-2" data-name="Oval" class="cls-12" cx="23.76" cy="0.74" rx="0.77" ry="0.74"/><ellipse id="Oval-3" data-name="Oval" class="cls-12" cx="32.65" cy="3.34" rx="0.77" ry="0.74"/></g></g></g><circle class="cls-13" cx="22.64" cy="33.41" r="0.59"/><circle class="cls-13" cx="24.41" cy="33.41" r="0.59"/><circle class="cls-13" cx="24.41" cy="35.09" r="0.59"/><circle class="cls-13" cx="22.64" cy="35.09" r="0.59"/></svg>