<svg id="Layer_1" data-name="Layer 1" xmlns="http://www.w3.org/2000/svg" viewBox="0 0 47 34.43"><defs><style>.cls-1,.cls-2{fill:#3d3d3d;}.cls-2{font-size:10.1px;font-family:OstrichSansRounded-Medium, Ostrich Sans Rounded;font-weight:500;letter-spacing:0.01em;}.cls-3{stroke:#b7b7b7;stroke-miterlimit:10;stroke-width:0.5px;}.cls-4{font-size:5.01px;font-family:Bitter-Bold, Bitter;font-weight:700;letter-spacing:0.02em;}.cls-5{letter-spacing:0.04em;}.cls-6{fill:#fff;}.cls-7{fill:#808282;}.cls-7,.cls-8{fill-rule:evenodd;}.cls-8{fill:#101a1a;fill-opacity:0.26;}.cls-9{fill:#5e6363;}</style></defs><title>kingstyle2</title><path class="cls-1" d="M22.12,33.71c10.93-.21,25.34-.35,25.85-.77h0s0,0,0,0h0c-.52-.41-14.93-.47-25.85-.56-12.35-.1-21-1.45-21.12.79H1v0H1C1.09,35.41,9.78,34,22.12,33.71Zm-16.79.11c-1.62,0-2.94-.29-2.94-.67s1.31-.7,2.93-.71,2.95.29,2.95.67S7,33.81,5.33,33.82Z" transform="translate(-1 -1.54)"/><text class="cls-2" transform="translate(16.38 22.95) scale(1.04 1)"><tspan class="cls-3">rINGS</tspan><tspan class="cls-4"><tspan x="-1.78" y="4.62">.S</tspan><tspan class="cls-5" x="3.01" y="4.62">T</tspan><tspan x="6.23" y="4.62">YLE.</tspan></tspan></text><rect class="cls-6" x="19.5" y="28.67" width="8" height="5.76"/><g id="WiP"><g id="Artboard"><g id="Group"><polygon id="Rectangle" class="cls-7" points="15.26 5.19 23.76 9.82 32.27 5.19 29.89 14.46 17.61 14.46 15.26 5.19"/><polygon id="Triangle" class="cls-8" points="23.76 2.97 29.56 14.46 17.97 14.46 23.76 2.97"/><ellipse id="Oval" class="cls-9" cx="14.87" cy="3.34" rx="0.77" ry="0.74"/><ellipse id="Oval-2" data-name="Oval" class="cls-9" cx="23.76" cy="0.74" rx="0.77" ry="0.74"/><ellipse id="Oval-3" data-name="Oval" class="cls-9" cx="32.65" cy="3.34" rx="0.77" ry="0.74"/></g></g></g></svg>