<?xml version="1.0" encoding="iso-8859-1"?>
<!-- Generator: Adobe Illustrator 19.0.0, SVG Export Plug-In . SVG Version: 6.00 Build 0)  -->
<svg version="1.1" id="Capa_1" xmlns="http://www.w3.org/2000/svg" xmlns:xlink="http://www.w3.org/1999/xlink" x="0px" y="0px"
	 viewBox="0 0 511.999 511.999" style="enable-background:new 0 0 511.999 511.999;" xml:space="preserve">
<g>
	<g>
		<path d="M255.181,106.896c-11.414,0-20.353,11.764-20.353,26.78c0,15.018,8.941,26.781,20.353,26.781
			c11.414,0,20.354-11.764,20.354-26.781C275.536,118.659,266.596,106.896,255.181,106.896z M255.181,145.458
			c-1.838,0-5.354-4.589-5.354-11.781c0-7.193,3.516-11.781,5.354-11.781c1.839,0,5.355,4.588,5.355,11.781
			C260.536,140.869,257.02,145.458,255.181,145.458z"/>
	</g>
</g>
<g>
	<g>
		<path d="M255.181,400.164c-11.414,0-20.353,11.764-20.353,26.781c0,15.017,8.941,26.781,20.353,26.781
			c11.414,0,20.354-11.764,20.354-26.781C275.536,411.927,266.596,400.164,255.181,400.164z M255.181,438.726
			c-1.838,0-5.354-4.589-5.354-11.782c0-7.193,3.516-11.781,5.354-11.781c1.839,0,5.355,4.589,5.355,11.781
			C260.536,434.138,257.02,438.726,255.181,438.726z"/>
	</g>
</g>
<g>
	<g>
		<path d="M492.886,31.27l-91.105,30.135c-18.086,5.247-18.266,17.995-18.118,20.502h-0.004l2.886,44.763
			c-7.14,7.14-29.306,29.306-37.036,37.036c-4.818-12.179-10.41-23.468-16.725-33.586c-2.194-3.514-6.821-4.584-10.334-2.391
			c-3.514,2.193-4.584,6.82-2.391,10.334c7.774,12.453,14.387,26.835,19.712,42.578c-48.101-7.656-123.873-7.289-169.478,0.911
			c4.11-12.286,8.803-23.723,15.451-35.747c29.36-53.091,75.912-72.204,116.945-30.197c2.895,2.964,7.643,3.02,10.605,0.125
			c2.964-2.895,3.02-7.643,0.125-10.605c-45.723-46.81-113.999-37.082-152.124,57.334l-35.793-35.792l2.886-44.763h-0.003
			c0.146-2.508-0.033-15.255-18.117-20.502l-9.763-3.229c-3.935-1.299-8.175,0.834-9.476,4.766
			c-1.301,3.933,0.833,8.176,4.766,9.477c11.384,3.763,9.964,3.299,10.191,3.363c5.653,1.618,7.324,3.981,7.433,5.173l-2.965,45.996
			l-1.804,1.804C92.195,112.3,46.624,66.728,30.824,50.929l36.415,12.046c3.936,1.298,8.176-0.833,9.476-4.766
			c1.301-3.933-0.833-8.176-4.765-9.476C16.012,30.267,19.094,31.157,17.958,30.981C12.542,30.14,7.65,31.838,4.446,34.865
			c-3.59,3.397-5.456,10.26-3.886,15.007l30.134,91.105c3.842,13.242,12.609,18.611,20.502,18.117v0.004l44.763-2.885l51.61,51.61
			c-10.422,48.705-10.031,105.238,2.739,155.082l-36.742,36.742c-0.002,0.002-0.003,0.004-0.005,0.005l-35.453,35.453
			c-13.085,13.084-3.805,35.651,14.77,35.651c5.349,0,10.7-2.037,14.771-6.108l57.935-57.935
			c4.612,10.052,9.802,19.38,15.531,27.825c1.451,2.138,3.811,3.29,6.213,3.29c5.907,0,9.615-6.677,6.2-11.712
			c-10.083-14.861-17.566-31.433-23.262-48.46c45.609,8.206,121.4,8.571,169.5,0.915c-26.123,77.084-79.924,112.511-127.589,69.375
			c-3.072-2.78-7.815-2.542-10.593,0.529c-2.779,3.071-2.542,7.814,0.529,10.594c42.875,38.797,105.04,30.777,143.187-53.511
			c14.488,14.488,49.432,49.432,59.09,59.09c6.653,6.653,14.871,6.138,14.771,6.118c18.594,0,27.846-22.586,14.77-35.661
			l-73.519-73.52c12.359-49.339,12.636-104.88,2.65-152.352c11.97-11.969,43.715-43.715,53.019-53.019l44.763,2.885v-0.004
			c7.864,0.492,16.65-4.844,20.502-18.117c32.005-96.875,30.244-91.143,30.425-92.309C513.743,36.012,502.406,28.144,492.886,31.27z
			 M96.242,141.163l-45.997,2.966c-1.191-0.108-3.554-1.78-5.172-7.433c-0.079-0.276,1.624,4.896-24.854-75.164l77.827,77.827
			L96.242,141.163z M352.636,238.231c3.248,26.318,3.445,54.266,0.076,82.115l-32.184-41.106L352.636,238.231z M242.133,340.363
			c-30.338-0.697-58.03-3.396-76.359-7.411l35.085-42.012L242.133,340.363z M166.293,226.148
			c18.203-3.926,45.405-6.572,75.215-7.285l-40.649,48.676L166.293,226.148z M210.63,279.24l46.887-56.145l43.959,56.145
			l-43.959,56.145L210.63,279.24z M273.245,218.848c27.189,0.625,52.406,2.864,70.62,6.252l-32.863,41.973L273.245,218.848z
			 M311.002,291.405l33.364,42.613c-18.381,3.465-44.045,5.746-71.705,6.358L311.002,291.405z M165.436,197.807
			c43.728-9.718,130.91-10.32,179.193-1.098c0.028,0.111,1.852,6.911,3.359,13.898c-49.994-9.661-139.563-9.177-185.888,1.109
			C163.193,206.572,164.101,202.852,165.436,197.807z M191.088,279.239l-33.569,40.196c-3.14-26.617-3.051-54.183,0.08-80.297
			L191.088,279.239z M129.493,168.532l-19.703-19.703l8.33-8.33l19.703,19.703L129.493,168.532z M140.099,179.139l8.33-8.331
			l7.186,7.186c-1.379,4.184-2.669,8.45-3.87,12.79L140.099,179.139z M97.048,454.039c-3.723,3.721-10.056,1.037-10.056-4.165
			c0-4.308,1.371-2.982,31.88-34.319l8.33,8.33L97.048,454.039z M137.808,413.279l-8.33-8.33l25.563-25.563
			c1.35,4.204,2.792,8.318,4.314,12.346L137.808,413.279z M344.658,362.497c-48.307,9.233-135.543,8.622-179.251-1.099
			c-1.211-4.574-2.311-9.212-3.307-13.903c46.373,10.297,135.962,10.761,185.905,1.106
			C346.939,353.562,345.841,358.088,344.658,362.497z M393.176,415.555l30.154,30.155c2.297,2.296,2.297,6.033,0,8.329
			c-2.295,2.295-6.034,2.297-8.329,0l-30.155-30.154L393.176,415.555z M382.569,404.949l-8.33,8.33l-22.754-22.754
			c1.508-4.048,2.929-8.183,4.261-12.398L382.569,404.949z M358.955,192.133c-0.967-3.562-2.592-9.068-3.814-12.845l8.479-8.479
			l8.33,8.33L358.955,192.133z M382.555,168.531l-8.33-8.33l19.703-19.703c2.913,2.913,5.417,5.417,8.33,8.33L382.555,168.531z
			 M403.398,128.754l-1.804-1.804c-3.141-48.645-2.958-46.031-3.005-46.418c-0.004-0.026,1.012-2.902,7.472-4.75
			c0.319-0.093-2.585,0.859,75.163-24.854L403.398,128.754z M466.977,136.696c-1.619,5.653-3.981,7.324-5.173,7.434l-45.996-2.965
			l-1.804-1.804l77.826-77.826C465.352,141.594,467.053,136.424,466.977,136.696z"/>
	</g>
</g>
<g>
</g>
<g>
</g>
<g>
</g>
<g>
</g>
<g>
</g>
<g>
</g>
<g>
</g>
<g>
</g>
<g>
</g>
<g>
</g>
<g>
</g>
<g>
</g>
<g>
</g>
<g>
</g>
<g>
</g>
</svg>
